<svg version="1" xmlns="http://www.w3.org/2000/svg" width="644" height="644" viewBox="0 0 483.000000 483.000000"><path d="M193 90c-25 3.8-45.6 6.9-45.8 6.9-.2.1-.2 1.1 0 2.3.2 1.5 7.2 7.2 23.2 19.1 19.7 14.5 23.2 16.7 25 15.9 4-1.8 50.7-47.3 50.4-49.1-.2-1.1-1.5-1.7-3.8-1.8-1.9-.1-24 2.9-49 6.7zM227.5 113.7c-13.9 13.2-25.1 24.6-25.3 25.8-.2 1.6 4.9 5.8 25.2 20.8 17 12.5 26 18.5 27 18.1 1.5-.6 1.6-5.1 1.4-44.2-.3-38.4-.5-43.7-1.8-44-.9-.1-12.2 9.8-26.5 23.5zM136.7 103.7c-.4.3-.7 19.5-.7 42.5 0 40.7.1 41.8 1.9 41.8 2.8 0 49.6-44.8 49.6-47.4 0-1.5-6.4-6.7-24-19.8C150.3 111 139 103 138.4 103c-.6 0-1.4.3-1.7.7zM170.2 168.1c-14.8 14.1-23.2 22.7-23 23.8.5 2.5 4.6 2.4 54.3-.9 45.3-3 48.1-3.4 47.2-6.5-.6-1.9-51-38.5-53.1-38.5-1.4 0-10.4 7.8-25.4 22.1zM195.6 196.6c-26.9 1.8-49.3 3.7-49.9 4.3-.5.5-.7 1.6-.4 2.3.9 2.6 47.1 39.2 49.4 39.3 2.9 0 53.3-43.9 53.3-46.5 0-1.4-2.4-3.5-3.3-2.9-.1.1-22.2 1.6-49.1 3.5zM274 197.1c0 2.9 32 45.9 34.2 45.9 2 0 31.3-30.6 31.3-32.7 0-.9-.7-2-1.5-2.4-1.7-1-59.1-12.9-62-12.9-1.4 0-2 .7-2 2.1zM227 224.6c-17.6 15.6-24.5 22.2-24.5 23.7 0 2.9 48 41.9 51 41.5 2-.3 2-1.1 2-43.3 0-42.3 0-43-2-43.2-1.4-.2-9.9 6.8-26.5 21.3zM267.7 204.7c-.4.3-.7 19.4-.7 42.4 0 35.8.2 41.8 1.5 42.3 1.9.7 1.8.8 19.6-21 11.5-14.1 15-19 14.7-20.7-.6-2.9-31.5-43.7-33.2-43.7-.7 0-1.6.3-1.9.7zM136.2 250.2c.3 38.5.4 42.3 2 42.3 2.7 0 49.8-41.7 49.7-44 0-2.5-46.9-40.5-49.9-40.5-2 0-2 .5-1.8 42.2zM327.6 231.4c-9 9.4-15.6 17.2-15.4 18 .2.8 7.2 10.8 15.6 22.1 11 14.8 15.8 20.5 17 20.3 1.6-.3 1.7-3.2 1.7-38.3 0-34-.2-38-1.6-38.3-1-.2-7.6 6-17.3 16.2zM170 274.6c-12.9 11.3-23.6 21.1-23.8 21.8-.8 3.5 1.8 3.6 51.9 3.4 49.2-.3 49.4-.3 49.7-2.4.2-1.6-4.9-6.3-25.4-22.7-14.1-11.4-26.3-20.7-27.2-20.7-1 0-12.3 9.3-25.2 20.6zM291 272.1c-8.2 10-15 18.7-15 19.5 0 .7.5 1.6 1.1 1.9.5.4 14.4 2 30.7 3.5 30.2 2.8 33.1 2.8 31.7-.8-1.2-3.2-30.9-42.2-32.1-42.2-.7 0-8.1 8.2-16.4 18.1zM274.4 301.5c-.4.8-.2 2.1.3 2.8.6.6 7.9 10.1 16.3 21 11 14.3 15.8 19.7 17.1 19.5 2.1-.4 32.9-35.3 32.9-37.3 0-.8-.4-1.7-1-2-1-.6-55-5.5-61.3-5.5-2.4 0-4 .5-4.3 1.5zM148 306.5c-2.7 3.2 0 6 22.6 23 24.5 18.4 26.8 20 28.7 18.9.6-.5 11.2-8.9 23.5-18.8 21.1-17 22.3-18.1 22-21l-.3-3.1-47.6-.3c-41.3-.2-47.8 0-48.9 1.3zM268.3 311.7c-1 .4-1.3 9.2-1.3 39.4V390l2.3-.1c1.6 0 6.1-4.7 17.1-18.1 8.2-9.9 15-18.9 15-19.9.1-1.8-29.9-41-31.2-40.8-.4 0-1.3.3-1.9.6zM228.9 330c-12.3 9.9-23.1 19.1-23.9 20.4-1.2 2-1.2 2.7-.1 4 .7.9 11.4 9.3 23.8 18.7 18.1 13.8 22.9 17 25.1 16.7l2.7-.3.3-37.4c.2-38.6.1-40.1-3.8-40.1-1 0-11.8 8.1-24.1 18zM327.5 331.4c-8.2 9.5-15.1 18.1-15.3 19-.5 2.3 30.7 40.8 32.7 40.4 1.4-.3 1.6-4.6 1.9-38.6l.2-38.2-2.2.1c-1.7 0-6.4 4.7-17.3 17.3zM137.3 316.1c-1 1-1.3 10.1-1.3 38.4 0 38.2.1 39.5 4 39.5.8 0 12.3-8.4 25.5-18.8 19-14.8 24.1-19.3 24.3-21.3.3-2.3-2.2-4.5-23.5-20.4-13.1-9.8-24.7-18-25.8-18.2-1.1-.3-2.6.1-3.2.8zM289 375.6c-10.4 11.8-17 20.2-16.8 21.2.3 1.5 3.3 1.7 33.8 1.7 31.4 0 33.5-.1 33.8-1.8.4-2.1-30.3-40.7-32.3-40.7-.8 0-9.1 8.8-18.5 19.6zM172.5 375.7c-12.1 9.8-22.1 18.6-22.3 19.6-.9 4.7-.9 4.7 47.8 4.7 48.7 0 48.7 0 47.8-4.7-.4-2.3-46.7-37.3-49.4-37.3-1.2 0-11.2 7.5-23.9 17.7z"/></svg>