<svg xmlns="http://www.w3.org/2000/svg" viewBox="0 0 197.14 39.59"><defs/><g id="Vrstva_2" data-name="Vrstva 2"><g id="Vrstva_1-2" data-name="Vrstva 1"><path d="M1.33 15.17a.3.3 0 01.17-.53l12.15-.8a.29.29 0 01.21.52l-6.3 5.52a.3.3 0 01-.39 0zm5.05 5.27a.3.3 0 010 .46L.5 26.06a.3.3 0 01-.5-.23v-9.92a.3.3 0 01.49-.23zm7.47 6a.3.3 0 01-.19.53h-12a.3.3 0 01-.2-.52l5.78-5.06a.3.3 0 01.39 0zm.6-.71a.3.3 0 00.49-.23V15.27a.3.3 0 00-.5-.23l-6.07 5.37a.3.3 0 000 .46zM0 2.84a.3.3 0 01.48-.24l5.87 4.33a.3.3 0 010 .46L.51 13a.3.3 0 01-.51-.24zm7.23 5.05a.32.32 0 01.39 0l6.29 4.64a.3.3 0 01-.16.54l-12 .79a.3.3 0 01-.22-.52zM15 1.21a.3.3 0 00-.52-.21L8.35 6.83a.3.3 0 000 .46l6.12 4.51a.3.3 0 00.48-.24zM13.61.52a.3.3 0 00-.25-.52L1.68 1.72a.3.3 0 00-.14.54l5.57 4.1a.3.3 0 00.38 0z" class="cls-1"/><path d="M13.44 28.63a.5.5 0 00-.32-.88H1.92a.49.49 0 00-.3.89L7.41 33A.5.5 0 008 33zM.81 38.67a.5.5 0 01-.81-.39v-8.76a.5.5 0 01.8-.4l5.72 4.29a.5.5 0 010 .79z" class="cls-2"/><path d="M2 38.71a.49.49 0 00.31.88h10.88a.5.5 0 00.3-.9l-5.63-4.22a.5.5 0 00-.62 0zm12.3-9.94a.51.51 0 01.82.39v8.66a.5.5 0 01-.81.39L8.79 34a.5.5 0 010-.79z" class="cls-1"/><path d="M25.49 28.25a.3.3 0 00-.2-.49l-7.64-.65a.3.3 0 00-.27.48l3.86 5a.29.29 0 00.46 0zm-3.39 5a.3.3 0 000 .39l3.74 4.63a.31.31 0 00.54-.19v-8.91a.3.3 0 00-.53-.2zm-5 5.67a.3.3 0 00.23.49h7.82a.29.29 0 00.24-.48l-3.76-4.65a.3.3 0 00-.46 0zm-.22-.69a.3.3 0 01-.53-.2v-9.16a.3.3 0 01.54-.19l3.68 4.7a.3.3 0 010 .38zm9.46-21.39a.3.3 0 00-.52-.21l-3.73 3.89a.32.32 0 000 .39l3.73 5a.31.31 0 00.55-.18zm-4.72 4.71a.3.3 0 00-.47 0l-3.56 4.3a.3.3 0 00.21.49l7.25.67a.3.3 0 00.27-.48zm-5.22-6.08a.3.3 0 01.54-.18l3.9 5.16a.3.3 0 010 .37l-3.92 4.79a.3.3 0 01-.53-.19zm.91-1a.3.3 0 01.31-.47l7.58 1.57a.3.3 0 01.15.5l-3.61 3.77a.31.31 0 01-.46 0z" class="cls-2"/><path d="M30.86 39.15a.5.5 0 01-.5-.5V16.54a.5.5 0 01.5-.5h3.84a.5.5 0 01.5.5V34a.5.5 0 00.5.5h9.14a.5.5 0 01.5.5v3.68a.5.5 0 01-.5.5zM55.3 34.6a3.78 3.78 0 002.1-.6 4.43 4.43 0 001.38-1.53 6.51 6.51 0 00.74-2.15 13.07 13.07 0 00.24-2.5V16.54a.5.5 0 01.5-.5h3.83a.5.5 0 01.5.5v11.32a17.42 17.42 0 01-.59 4.49A10.37 10.37 0 0162.35 36a8.06 8.06 0 01-2.89 2.47 10.22 10.22 0 01-8.46-.06 8.37 8.37 0 01-2.89-2.51 11.29 11.29 0 01-1.62-3.68 18.27 18.27 0 01-.5-4.36V16.54a.5.5 0 01.5-.5h3.83a.5.5 0 01.5.5v11.32a13 13 0 00.24 2.54 7.11 7.11 0 00.76 2.15A4.36 4.36 0 0053.21 34a3.77 3.77 0 002.09.6zM68.84 39.15a.5.5 0 01-.5-.5V16.54a.5.5 0 01.5-.5h3.83a.5.5 0 01.5.5v8a.5.5 0 00.9.31l6.62-8.6a.47.47 0 01.39-.2h4.18a.5.5 0 01.39.8l-7 9.24a.53.53 0 000 .58l7.68 11.72a.5.5 0 01-.42.77h-4.36a.48.48 0 01-.42-.23l-5.42-8.51a.5.5 0 00-.8-.06l-1.61 1.85a.51.51 0 00-.13.33v6.11a.5.5 0 01-.5.5zM93.18 26.54a.5.5 0 00.5.5h3.93a1.78 1.78 0 001.47-.87 4.07 4.07 0 00.62-2.32 3.43 3.43 0 00-.7-2.27 2 2 0 00-1.53-.85h-3.79a.5.5 0 00-.5.5zm-4.33 12.61a.5.5 0 01-.5-.5V16.54a.5.5 0 01.5-.5h8.93a5.6 5.6 0 012.72.68 7.55 7.55 0 012.18 1.79 8.26 8.26 0 011.41 2.49 7.79 7.79 0 01.53 2.83 9.63 9.63 0 01-.23 2.09 8.89 8.89 0 01-.68 1.85 7.41 7.41 0 01-1.09 1.6 6.77 6.77 0 01-1 .91.52.52 0 00-.17.68l4 7.44a.49.49 0 01-.44.73h-4.32a.49.49 0 01-.44-.26L96.48 32a.51.51 0 00-.48-.3h-2.32a.5.5 0 00-.5.5v6.45a.5.5 0 01-.5.5zM117.43 30.3a.5.5 0 00.48-.64l-1.78-5.95a.5.5 0 00-1 0l-1.82 5.94a.5.5 0 00.47.65zm-4.07-13.92a.51.51 0 01.47-.34h3.65a.51.51 0 01.47.34l7.31 22.12a.5.5 0 01-.48.65h-3.89a.5.5 0 01-.48-.35L119 34.33a.5.5 0 00-.48-.35h-5.78a.5.5 0 00-.48.35l-1.36 4.47a.5.5 0 01-.48.35h-3.89a.5.5 0 01-.48-.65zM140.12 22.1a.7.7 0 01-1 .22 13.6 13.6 0 00-1.33-.74 11.47 11.47 0 00-1.74-.69 6.52 6.52 0 00-1.89-.29c-1.72 0-2.59.64-2.59 1.92a1.69 1.69 0 00.27 1 2.92 2.92 0 00.82.71 8.68 8.68 0 001.39.56l1.91.58a22.28 22.28 0 012.72 1 6.53 6.53 0 012 1.34 5.07 5.07 0 011.3 1.92 7.21 7.21 0 01.47 2.73 7.44 7.44 0 01-.68 3.32 6 6 0 01-1.74 2.18 7.55 7.55 0 01-2.5 1.21 11.85 11.85 0 01-2.92.35 14.71 14.71 0 01-2.36-.19 18.4 18.4 0 01-2.36-.55 19.87 19.87 0 01-2.24-.92 12.25 12.25 0 01-1.65-1 .5.5 0 01-.16-.61l1.6-3.5a.73.73 0 011-.24l.1.07a11.38 11.38 0 001.59.91 15.46 15.46 0 002.16.82 8.1 8.1 0 002.39.36c1.71 0 2.56-.58 2.56-1.73a1.56 1.56 0 00-.24-1.04 3.38 3.38 0 00-1.06-.75 9.37 9.37 0 00-1.63-.65l-2-.65a18.46 18.46 0 01-2.51-1.05 7.45 7.45 0 01-1.8-1.33 5.2 5.2 0 01-1-1.73 7.4 7.4 0 01-.32-2.27 7.82 7.82 0 01.62-3.23 6.68 6.68 0 011.68-2.34 7.14 7.14 0 012.44-1.47 9.26 9.26 0 013-.48 10.25 10.25 0 012.15.22 16.09 16.09 0 012 .59 13.57 13.57 0 011.8.81c.42.23.82.45 1.19.68a.49.49 0 01.18.63zM161.16 20.23a.5.5 0 01-.5.5h-5.37a.5.5 0 00-.5.5v17.42a.5.5 0 01-.5.5h-3.83a.5.5 0 01-.5-.5V21.23a.5.5 0 00-.5-.5h-5.4a.51.51 0 01-.5-.5v-3.69a.5.5 0 01.5-.5h16.6a.5.5 0 01.5.5zM171.1 30.3a.5.5 0 00.48-.64l-1.78-5.95a.5.5 0 00-1 0l-1.8 5.94a.5.5 0 00.47.65zM167 16.38a.51.51 0 01.47-.34h3.64a.51.51 0 01.48.34l7.3 22.12a.49.49 0 01-.47.65h-3.89a.5.5 0 01-.48-.35l-1.4-4.47a.5.5 0 00-.48-.35h-5.78a.5.5 0 00-.48.35l-1.37 4.47a.5.5 0 01-.48.35h-3.86a.5.5 0 01-.48-.65zM182.08 16a.5.5 0 01.48.36l4.34 14.44a.49.49 0 00.95 0l4.29-14.44a.5.5 0 01.48-.36h4a.5.5 0 01.48.66l-7.59 22.12a.5.5 0 01-.47.33h-3.34a.5.5 0 01-.47-.33l-7.68-22.08a.5.5 0 01.45-.7z"/></g></g></svg>